<?xml version="1.0" encoding="utf-8"?>
<!-- Generator: Adobe Illustrator 24.3.0, SVG Export Plug-In . SVG Version: 6.00 Build 0)  -->
<svg version="1.1" id="Layer_1" xmlns="http://www.w3.org/2000/svg" xmlns:xlink="http://www.w3.org/1999/xlink" width="135" 
	 viewBox="0 0 200 100" style="enable-background:new 0 0 200 100;" xml:space="preserve">
<style type="text/css">
	.st0{fill:#295DA8;}
	.st1{fill:#B8BAC5;}
</style>
<g>
	<path class="st0" d="M59.1,49.7c0,0.2,0.1,0.3,0.2,0.4c3.3,4.9,6.7,9.7,10,14.6c0.2,0.3,0.4,0.7,0.5,1.1c0.1,0.9-0.2,1.6-0.9,2.2
		c-0.1,0.1-0.2,0.1-0.3,0.2c-0.5,0.2-1,0.2-1.6,0.2c-1.1,0-2.3,0-3.4,0c-1.9,0-3.5-0.8-4.6-2.4c-1.8-2.6-3.6-5.2-5.4-7.8
		c-1.8-2.6-3.6-5.3-5.4-7.9c-0.1-0.2-0.3-0.3-0.5-0.3c-1.2,0-2.3,0-3.5,0c-0.1,0-0.2,0-0.4,0.1c0,0.3,0,0.7,0,1c0,0.2,0,0.3,0,0.5
		c0,4.7,0,9.4,0,14.1c0,0.9-0.3,1.7-1.1,2.3c-0.1,0.1-0.1,0.1-0.2,0.2c-0.1,0-0.2,0.1-0.3,0.1c-0.3,0.1-0.6,0.2-0.9,0.2
		c-1.3,0-2.6,0-3.9,0c-0.9,0-1.6-0.4-2.1-1.2c-0.3-0.5-0.4-1-0.4-1.5c0-12.2,0-24.4,0-36.7c0-2.4,0-4.7,0-7.1c0-0.7,0.1-1.3,0.4-2
		c0-0.1,0.1-0.1,0.1-0.2c0.1-0.1,0.2-0.3,0.3-0.4c0.9-1.1,2-1.8,3.4-1.8c0.1,0,0.2,0,0.3,0c4.7,0,9.3,0,14,0
		c7.1,0,13.4,4.6,15.6,11.3c0.5,1.6,0.8,3.2,0.8,4.8c0,3.3-0.7,6.3-2.5,9.1c-0.7,1.1-1.5,2.1-2.5,3c0,0-0.1,0-0.1,0.1c0,0,0,0,0,0
		c0,0-0.1,0-0.1,0.1c-0.1,0.1-0.2,0.1-0.3,0.2c-0.3,0.1-0.5,0.3-0.7,0.5c-1.4,1.1-3,2-4.7,2.6c-0.1,0-0.2,0.1-0.3,0.2
		C58.9,49.4,58.9,49.6,59.1,49.7z M58.7,39.8L58.7,39.8c0.2-0.1,0.3-0.2,0.4-0.4c1.4-1.9,2-4.1,1.7-6.5c-0.3-1.7-1-3.2-2.2-4.5
		c-1.7-1.8-3.8-2.7-6.2-2.7c-2.6,0-5.3,0-7.9,0c-0.1,0-0.2,0-0.4,0.1c0,0.3,0,0.7,0,1c0,0.1,0,0.3,0,0.4c0,2.1,0,4.2,0,6.4
		c0,2.9,0,5.8,0,8.7c0,0.1,0,0.3,0,0.4c0.1,0.1,0.2,0.1,0.3,0.1c2.6,0,5.3,0,7.9,0c1.3,0,2.6-0.3,3.8-0.8c1-0.5,1.9-1.1,2.6-2
		C58.6,40,58.7,39.9,58.7,39.8z"/>
	<path class="st0" d="M101,79.7c-0.1,0-0.1,0.1-0.2,0.1c-0.1,0-0.1,0.1-0.2,0.1c-1.2,1-2.5,1.8-4,2.4c-1.6,0.7-3.2,1-4.9,1.1
		c-1.2,0.1-2.3,0-3.5-0.1c-1.6-0.2-3.2-0.5-4.8-1c-1.5-0.5-2.8-1.1-4.2-1.8c-1.9-1-2.7-3.2-1.8-5.1c0-0.1,0.1-0.2,0.1-0.3
		c0.1-0.1,0.2-0.2,0.3-0.4c1.1-1.6,3.1-2.2,4.8-1.4c0.8,0.4,1.7,0.8,2.5,1.1c1.6,0.6,3.2,1,4.9,0.9c1.8-0.1,3.4-0.8,4.8-2.1
		c0.1-0.1,0.1-0.2,0.2-0.2c0,0,0.1,0,0.1-0.1c0,0,0,0,0,0c0,0,0.1,0,0.1-0.1c0,0,0,0,0,0c0,0,0.1,0,0.1-0.1c0,0,0-0.1,0.1-0.1
		c0.1,0,0.2-0.1,0.2-0.2c1.1-1.4,1.6-2.9,1.7-4.6c0-0.8,0-1.5,0-2.3c0-0.1,0-0.2-0.1-0.3c-0.1,0-0.2,0.1-0.3,0.1
		c-0.4,0.2-0.8,0.3-1.2,0.5c-1.9,0.6-3.9,0.9-6,0.7c-1.2-0.1-2.4-0.3-3.5-0.7c-2.8-1-5.1-2.6-7-4.9c-2.1-2.7-3.2-5.8-3.2-9.3
		c0-5.5,0-11,0-16.5c0-0.6,0.1-1.2,0.4-1.8c0-0.1,0.1-0.1,0.1-0.2c0,0,0,0,0,0c0.1,0,0.1-0.1,0.1-0.1c0.1-0.1,0.2-0.3,0.3-0.4
		c1-1.4,2.8-2.1,4.5-1.7c1.7,0.4,3,1.8,3.3,3.5c0.1,0.3,0.1,0.6,0.1,1c0,5.3,0,10.6,0,15.9c0,1.7,0.5,3.1,1.6,4.3
		c1.1,1.2,2.5,1.9,4.1,2.1c1.7,0.2,3.1-0.3,4.5-1.3c0.2-0.2,0.5-0.4,0.7-0.6c0,0,0.1,0,0.1-0.1c0,0,0,0,0,0c0.4-0.3,0.7-0.8,0.9-1.2
		c0.6-1,0.8-2.1,0.8-3.2c0-5.3,0-10.6,0-16c0-0.3,0.1-0.7,0.1-1c0.1-0.4,0.3-0.7,0.3-1.1c0,0,0,0,0,0c0.1,0,0.1-0.1,0.1-0.1
		c0.2-0.3,0.4-0.7,0.7-0.9c1.3-1.2,2.7-1.6,4.4-1.1c1.7,0.5,2.7,1.7,3,3.4c0.1,0.3,0.1,0.7,0.1,1c0,10.9,0,21.8,0,32.7
		c0,3.5-1,6.7-3.2,9.5c-0.5,0.6-1,1.2-1.6,1.8c0,0-0.1,0-0.1,0.1c0,0,0,0,0,0c0,0-0.1,0-0.1,0.1c0,0,0,0,0,0
		C101,79.6,101,79.6,101,79.7z"/>
	<path class="st0" d="M114,32.8C114.1,32.7,114.1,32.7,114,32.8c0.1-0.1,0.1-0.1,0.1-0.1c0.2-0.3,0.4-0.6,0.7-0.8
		c0.7-0.6,1.4-0.9,2.3-1c0.5,0,1.1,0,1.6,0c1.7,0,3.1,1.3,3.3,3c0,0.1,0,0.2,0.1,0.2c0.1,0,0.1-0.1,0.1-0.1c1.2-1.5,2.7-2.4,4.4-2.9
		c1.6-0.5,3.3-0.7,5-0.5c2.8,0.2,5.4,1.1,7.7,2.6c3.1,2,5.1,4.9,6.2,8.4c0.5,1.5,0.7,3.1,0.8,4.7c0.1,2.7-0.1,5.4-0.8,8
		c-0.9,3.3-2.5,6.1-4.9,8.6c-0.1,0.1-0.1,0.1-0.2,0.2c0,0-0.1,0-0.1,0.1c0,0,0,0,0,0c0,0-0.1,0-0.1,0.1c0,0,0,0,0,0
		c0,0-0.1,0-0.1,0.1c0,0,0,0-0.1,0.1c-0.1,0-0.2,0.1-0.2,0.1c-1.3,1.1-2.7,2-4.2,2.7c-1.5,0.6-3,1-4.6,1.1c-1.2,0.1-2.5,0.1-3.7-0.1
		c-1.7-0.2-3.3-0.6-4.9-1.3c-0.1-0.1-0.2-0.1-0.4-0.1c0,0.5,0,0.9,0,1.4c0,0.4,0,0.8,0,1.3c0,3.2,0,6.3,0,9.5c0,1.1-0.3,2.1-1,2.9
		c-0.2,0.2-0.5,0.5-0.7,0.7c0,0-0.1,0-0.1,0.1c0,0,0,0,0,0c0,0-0.1,0-0.1,0c-0.9,0.5-1.8,0.8-2.8,0.6c-1-0.1-1.9-0.6-2.5-1.3
		c-0.7-0.8-1.1-1.8-1.1-2.9c0-14.4,0-28.8,0-43.2C113.7,34.1,113.8,33.5,114,32.8C114.1,32.8,114,32.8,114,32.8z M123.9,41.4
		C123.9,41.4,123.8,41.5,123.9,41.4c-0.8,0.9-1.4,1.8-1.8,2.8c-0.1,0.2-0.1,0.4-0.1,0.6c0,4,0,8,0,12c0,0.3,0.1,0.4,0.3,0.6
		c1.8,1.2,3.8,1.9,6,1.9c1.6,0,3.1-0.3,4.6-1c0.8-0.4,1.6-0.9,2.2-1.6c0,0,0.1,0,0.1-0.1c0,0,0-0.1,0.1-0.1c0.1,0,0.1-0.1,0.1-0.1
		c0.5-0.5,0.8-1.1,1.2-1.8c0.7-1.4,1-2.9,1.1-4.5c0.1-1.2,0-2.3-0.1-3.5c-0.1-1.2-0.4-2.3-0.8-3.4c-0.5-1.3-1.3-2.4-2.4-3.2
		c-1.8-1.3-3.8-1.6-5.9-1.4c-1.4,0.2-2.6,0.7-3.6,1.6C124.5,40.7,124.1,41,123.9,41.4L123.9,41.4z"/>
	<path class="st0" d="M152.2,19.6c0.1-0.2,0.3-0.4,0.4-0.5c1.2-1.5,2.8-2,4.6-1.6c1.8,0.5,3,1.7,3.4,3.6c0.1,0.3,0.1,0.6,0.1,1
		c0,12.2,0,24.5,0,36.7c0,0.2,0,0.3,0,0.5c0.3,0.1,0.5,0,0.8,0c0.6,0,1.2,0.1,1.7,0.3c3,1.2,3.8,5.1,1.5,7.4
		c-0.1,0.1-0.3,0.3-0.4,0.4c0,0-0.1,0-0.1,0.1c0,0,0,0,0,0c-0.1,0-0.2,0.1-0.3,0.1c-0.5,0.3-1,0.5-1.6,0.6c-0.9,0.1-1.8,0.1-2.7,0
		c-2-0.2-3.7-1-5.1-2.4c-1.9-1.8-2.8-4-2.8-6.7c0-12.3,0-24.7,0-37c0-0.8,0.1-1.6,0.5-2.3c0,0,0-0.1,0-0.1c0,0,0,0,0,0
		C152.2,19.7,152.2,19.6,152.2,19.6z"/>
	<path class="st1" d="M76.3,33.2c0,0.1,0,0.2-0.1,0.2c-0.3,0.6-0.4,1.2-0.4,1.8c0,5.5,0,11,0,16.5c0,3.4,1.1,6.5,3.2,9.3
		c1.8,2.3,4.2,4,7,4.9c1.1,0.4,2.3,0.6,3.5,0.7c2,0.2,4-0.1,6-0.7c0.4-0.1,0.8-0.3,1.2-0.5c0.1,0,0.2-0.1,0.3-0.1
		c0.1,0.1,0.1,0.2,0.1,0.3c0,0.8,0,1.5,0,2.3c-0.1,1.7-0.6,3.3-1.7,4.6c-0.1,0.1-0.1,0.2-0.2,0.2c0-0.2,0.1-0.3,0.2-0.5
		c0.4-0.8,0.7-1.7,0.8-2.6c0.1-0.9,0.1-1.9,0.1-2.8c0-0.1,0-0.2,0-0.3c-0.1-0.1-0.1,0-0.2,0c-1,0.5-2.1,0.8-3.2,1
		c-1.3,0.3-2.6,0.3-3.9,0.2c-1.6-0.1-3.2-0.5-4.7-1.1c-1.5-0.6-2.8-1.5-4-2.5c-1.2-1.1-2.3-2.3-3.1-3.7c-0.8-1.4-1.4-2.8-1.7-4.4
		c-0.3-1.2-0.4-2.4-0.4-3.6c0-5.4,0-10.8,0-16.2c0-0.9,0.3-1.8,0.8-2.6C75.9,33.5,76.1,33.3,76.3,33.2z"/>
	<path class="st1" d="M152.1,19.7c0,0,0,0.1,0,0.1c-0.4,0.7-0.5,1.5-0.5,2.3c0,12.3,0,24.7,0,37c0,2.6,0.9,4.8,2.8,6.7
		c1.4,1.4,3.2,2.2,5.1,2.4c0.9,0.1,1.8,0.1,2.7,0c0.6-0.1,1.1-0.3,1.6-0.6c0.1-0.1,0.1-0.1,0.3-0.1c-0.1,0.2-0.2,0.4-0.4,0.6
		c-0.9,0.8-1.9,1.3-3.1,1.3c-0.3,0-0.7,0-1,0c-1.2,0-2.4-0.2-3.5-0.7c-1.3-0.5-2.4-1.4-3.3-2.4c-1-1.1-1.6-2.4-1.9-3.9
		c-0.1-0.6-0.2-1.3-0.2-1.9c0-12.5,0-25,0-37.5c0-1.1,0.4-2.1,1-2.9C151.8,19.9,151.9,19.7,152.1,19.7z"/>
	<path class="st1" d="M35.4,19.6c0,0.1,0,0.2-0.1,0.2c-0.3,0.6-0.4,1.3-0.4,2c0,2.4,0,4.7,0,7.1c0,12.2,0,24.4,0,36.7
		c0,0.6,0.1,1.1,0.4,1.5c0.5,0.8,1.2,1.2,2.1,1.2c1.3,0,2.6,0,3.9,0c0.3,0,0.6-0.1,0.9-0.2c0.1,0,0.2-0.1,0.3-0.1
		c0,0.1,0,0.2-0.1,0.2c-0.6,0.7-1.2,1.1-2.1,1.1c-1.3,0-2.6,0-3.9,0c-1.2,0-2.5-0.9-2.6-2.6c0-0.1,0-0.2,0-0.3c0-14.5,0-29,0-43.5
		c0-1.2,0.3-2.2,1.1-3.1C35.1,19.8,35.3,19.6,35.4,19.6z"/>
	<path class="st1" d="M114,32.8C114,32.8,114.1,32.8,114,32.8c-0.3,0.7-0.3,1.4-0.3,2.1c0,14.4,0,28.8,0,43.2c0,1.1,0.3,2.1,1.1,2.9
		c0.7,0.7,1.5,1.2,2.5,1.3c1,0.1,1.9-0.1,2.8-0.6c0,0,0.1,0,0.1,0c0,0.2-0.1,0.3-0.3,0.4c-0.7,0.7-1.5,1.1-2.4,1.3
		c-1.4,0.2-2.6-0.2-3.6-1.3c-0.7-0.7-1-1.5-1.1-2.4c-0.1-0.6,0-1.2,0-1.8c0-14.1,0-28.1,0-42.2c0-0.9,0.2-1.7,0.7-2.4
		C113.7,33,113.8,32.8,114,32.8z"/>
	<path class="st1" d="M44,51c-0.1-0.3,0-0.7,0-1c0.1-0.1,0.2-0.1,0.4-0.1c1.2,0,2.3,0,3.5,0c0.2,0,0.4,0.1,0.5,0.3
		c1.8,2.6,3.6,5.3,5.4,7.9c1.8,2.6,3.6,5.2,5.4,7.8c1.1,1.6,2.6,2.4,4.6,2.4c1.1,0,2.3,0,3.4,0c0.5,0,1.1,0,1.6-0.2
		c-0.3,0.8-0.9,1.2-1.8,1.3c-1.5,0-3.1,0.1-4.6,0c-1,0-2-0.5-2.8-1.1c-0.6-0.4-1.1-1-1.5-1.6c-1.5-2.3-3.1-4.5-4.6-6.7
		c-1.1-1.6-2.3-3.3-3.4-4.9c-0.9-1.3-1.8-2.6-2.6-3.8c-0.1-0.1-0.2-0.2-0.4-0.2c-1,0-2,0-2.9,0C44,50.9,44,50.9,44,51z"/>
	<path class="st1" d="M77.5,75.2c0,0.1,0,0.2-0.1,0.3c-0.8,1.9-0.1,4.2,1.8,5.1c1.4,0.7,2.7,1.4,4.2,1.8c1.6,0.5,3.1,0.9,4.8,1
		c1.2,0.1,2.3,0.2,3.5,0.1c1.7-0.1,3.3-0.5,4.9-1.1c1.4-0.6,2.8-1.4,4-2.4c0.1-0.1,0.1-0.1,0.2-0.1c0,0.2-0.1,0.2-0.2,0.3
		c-0.8,0.7-1.5,1.4-2.4,1.9c-1.7,1.1-3.5,1.8-5.4,2.2c-0.8,0.2-1.7,0.3-2.5,0.3c-0.9,0-1.8,0-2.7-0.1c-1.4-0.2-2.9-0.4-4.3-0.8
		c-1.8-0.5-3.4-1.3-5.1-2.1c-1.1-0.6-1.8-1.6-2-2.8c-0.2-1.3,0.2-2.5,1.1-3.4C77.4,75.2,77.5,75.2,77.5,75.2z"/>
	<path class="st1" d="M97.7,33.2c0,0.4-0.3,0.7-0.3,1.1c0,0.3-0.1,0.7-0.1,1c0,5.3,0,10.6,0,16c0,1.1-0.2,2.2-0.8,3.2
		c-0.3,0.4-0.5,0.9-0.9,1.2c0-0.3,0.2-0.5,0.3-0.7c0.3-0.8,0.5-1.6,0.5-2.5c0-5.4,0-10.8,0-16.2c0-1,0.3-1.8,0.8-2.6
		C97.3,33.5,97.4,33.3,97.7,33.2z"/>
	<path class="st1" d="M122,67.1c-0.1-0.5,0-0.9,0-1.4c0.2,0,0.3,0.1,0.4,0.1c1.6,0.7,3.2,1.1,4.9,1.3c1.2,0.2,2.5,0.2,3.7,0.1
		c1.6-0.1,3.1-0.5,4.6-1.1c1.6-0.7,3-1.5,4.2-2.7c0.1-0.1,0.1-0.1,0.2-0.1c0,0.1-0.1,0.2-0.2,0.3c-1.5,1.5-3.1,2.6-5,3.5
		c-1.3,0.5-2.6,0.9-3.9,1.1c-0.4,0.1-0.7,0.1-1.1,0.1c-0.4,0-0.8,0.1-1.1,0.1c-1.1-0.1-2.2-0.1-3.3-0.3c-1.1-0.2-2.1-0.5-3.1-0.8
		C122.2,67.1,122.1,67.1,122,67.1z"/>
	<path class="st1" d="M59.1,49.7c-0.2-0.1-0.2-0.3-0.4-0.4c0.1-0.2,0.2-0.2,0.3-0.2c1.7-0.6,3.3-1.5,4.7-2.6
		c0.2-0.2,0.4-0.4,0.7-0.5c0,0.2-0.1,0.2-0.2,0.3c-0.8,0.8-1.7,1.5-2.6,2.1c-0.8,0.5-1.5,0.9-2.4,1.3C59.2,49.6,59.2,49.7,59.1,49.7
		z"/>
	<path class="st1" d="M152.2,19.6c0,0.1,0,0.1-0.1,0.1C152.1,19.6,152.1,19.6,152.2,19.6z"/>
	<path class="st1" d="M76.4,33.1c0,0.1,0,0.1-0.1,0.1C76.3,33.1,76.3,33.1,76.4,33.1z"/>
	<path class="st1" d="M97.7,33.1c0,0.1,0,0.1-0.1,0.1C97.6,33.1,97.7,33.1,97.7,33.1z"/>
	<path class="st1" d="M101,79.7c0-0.1,0-0.1,0.1-0.1C101.1,79.7,101,79.7,101,79.7z"/>
	<path class="st1" d="M114.1,32.6C114.1,32.7,114.1,32.7,114.1,32.6C114.1,32.7,114.1,32.6,114.1,32.6z"/>
	<path class="st1" d="M140.3,63.1C140.3,63,140.3,63,140.3,63.1C140.4,63.1,140.3,63.1,140.3,63.1z"/>
	<path class="st1" d="M140.2,63.2C140.2,63.1,140.3,63.1,140.2,63.2C140.3,63.1,140.3,63.2,140.2,63.2z"/>
	<path class="st1" d="M140.2,63.2C140.2,63.2,140.2,63.2,140.2,63.2C140.2,63.2,140.2,63.2,140.2,63.2z"/>
	<path class="st1" d="M164.2,67.5C164.2,67.4,164.2,67.4,164.2,67.5C164.2,67.4,164.2,67.5,164.2,67.5z"/>
	<path class="st1" d="M64.7,45.7C64.7,45.6,64.8,45.6,64.7,45.7C64.8,45.6,64.8,45.7,64.7,45.7z"/>
	<path class="st1" d="M64.8,45.6C64.8,45.5,64.8,45.5,64.8,45.6C64.9,45.6,64.9,45.6,64.8,45.6z"/>
	<path class="st1" d="M95.2,72.9C95.2,72.9,95.2,73,95.2,72.9C95.2,72.9,95.2,72.9,95.2,72.9z"/>
	<path class="st1" d="M95.2,73C95.2,73,95.1,73,95.2,73C95.1,73,95.1,73,95.2,73z"/>
	<path class="st1" d="M95.1,73.1C95.1,73.1,95,73.2,95.1,73.1C95,73.1,95,73.1,95.1,73.1z"/>
	<path class="st1" d="M101.1,79.5C101.1,79.5,101.2,79.5,101.1,79.5C101.2,79.5,101.2,79.5,101.1,79.5z"/>
	<path class="st1" d="M101.1,79.6C101.1,79.6,101.1,79.5,101.1,79.6C101.1,79.6,101.1,79.6,101.1,79.6z"/>
	<path class="st1" d="M120.3,81.6C120.3,81.5,120.3,81.5,120.3,81.6C120.4,81.5,120.3,81.6,120.3,81.6z"/>
	<path class="st1" d="M95.5,55.7C95.5,55.7,95.5,55.8,95.5,55.7C95.4,55.7,95.5,55.7,95.5,55.7z"/>
	<path class="st1" d="M58.7,39.8c0-0.1,0.1-0.2,0.1-0.3c0.5-1,0.9-2,1-3.1c0.3-2.3-0.3-4.3-1.6-6.2c-1-1.4-2.3-2.4-3.9-2.9
		c-1-0.3-1.9-0.5-3-0.5c-2.3,0-4.6,0-6.9,0c-0.1,0-0.3,0-0.4,0c-0.1-0.3,0-0.7,0-1c0.1-0.1,0.3-0.1,0.4-0.1c2.6,0,5.3,0,7.9,0
		c2.5,0,4.5,0.9,6.2,2.7c1.2,1.3,1.9,2.8,2.2,4.5c0.4,2.4-0.2,4.6-1.7,6.5C58.9,39.6,58.8,39.7,58.7,39.8z"/>
	<path class="st1" d="M58.5,40c0-0.1,0-0.2,0.1-0.2C58.7,39.9,58.6,40,58.5,40z"/>
	<path class="st1" d="M135.2,56.6c0-0.1,0-0.2,0.1-0.3c0.7-1.2,1.1-2.6,1.3-4c0.1-0.9,0.2-1.7,0.1-2.6c-0.1-1.6-0.2-3.2-0.8-4.8
		c-0.4-1.2-1-2.2-1.9-3.1c-1-1-2.2-1.6-3.5-1.9c-0.9-0.2-1.9-0.2-2.8-0.1c-1.3,0.1-2.5,0.6-3.5,1.5c-0.1,0.1-0.1,0.2-0.3,0.2
		c0.2-0.4,0.6-0.7,0.9-1c1-0.9,2.2-1.5,3.6-1.6c2.1-0.3,4.1,0.1,5.9,1.4c1.1,0.8,1.9,1.9,2.4,3.2c0.4,1.1,0.7,2.2,0.8,3.4
		c0.1,1.2,0.2,2.3,0.1,3.5c-0.1,1.6-0.4,3.1-1.1,4.5c-0.3,0.6-0.7,1.2-1.2,1.8C135.4,56.5,135.3,56.6,135.2,56.6z"/>
	<path class="st1" d="M123.9,41.4C123.9,41.5,123.9,41.5,123.9,41.4C123.8,41.5,123.9,41.4,123.9,41.4z"/>
	<path class="st1" d="M135.1,56.7C135.1,56.7,135.1,56.6,135.1,56.7C135.2,56.7,135.2,56.7,135.1,56.7z"/>
</g>
</svg>
